<?xml version="1.0" encoding="UTF-8" standalone="no"?>
<!-- Created with Inkscape (http://www.inkscape.org/) -->

<svg
   xmlns:dc="http://purl.org/dc/elements/1.1/"
   xmlns:cc="http://creativecommons.org/ns#"
   xmlns:rdf="http://www.w3.org/1999/02/22-rdf-syntax-ns#"
   xmlns:svg="http://www.w3.org/2000/svg"
   xmlns="http://www.w3.org/2000/svg"
   xmlns:sodipodi="http://sodipodi.sourceforge.net/DTD/sodipodi-0.dtd"
   xmlns:inkscape="http://www.inkscape.org/namespaces/inkscape"
   id="svg6641"
   version="1.1"
   inkscape:version="0.48.5 r10040"
   width="32"
   height="64"
   sodipodi:docname="controls.svg">
  <metadata
     id="metadata6647">
    <rdf:RDF>
      <cc:Work
         rdf:about="">
        <dc:format>image/svg+xml</dc:format>
        <dc:type
           rdf:resource="http://purl.org/dc/dcmitype/StillImage" />
        <dc:title></dc:title>
      </cc:Work>
    </rdf:RDF>
  </metadata>
  <defs
     id="defs6645" />
  <sodipodi:namedview
     pagecolor="#ffffff"
     bordercolor="#666666"
     borderopacity="1"
     objecttolerance="10"
     gridtolerance="10"
     guidetolerance="10"
     inkscape:pageopacity="0"
     inkscape:pageshadow="2"
     inkscape:window-width="1780"
     inkscape:window-height="873"
     id="namedview6643"
     showgrid="true"
     inkscape:zoom="14.75"
     inkscape:cx="22.810381"
     inkscape:cy="12.776361"
     inkscape:window-x="119"
     inkscape:window-y="94"
     inkscape:window-maximized="0"
     inkscape:current-layer="svg6641">
    <inkscape:grid
       type="xygrid"
       id="grid7161" />
  </sodipodi:namedview>
  <rect
     style="fill:#626262;fill-opacity:1;fill-rule:nonzero;stroke:none"
     id="rect3044"
     width="16"
     height="16"
     x="0"
     y="-4.2551547e-016"
     rx="1.4576272" />
  <rect
     rx="1.4576272"
     y="-4.2551547e-016"
     x="16"
     height="16"
     width="16"
     id="rect3816"
     style="fill:#626262;fill-opacity:1;fill-rule:nonzero;stroke:none" />
  <g
     transform="matrix(0.95976928,0,0,1.0107821,-14.660274,-1.4342071)"
     style="font-size:20px;font-style:normal;font-weight:normal;line-height:125%;letter-spacing:0px;word-spacing:0px;fill:#f4f4f4;fill-opacity:1;stroke:none;font-family:Sans"
     id="flowRoot7167">
    <path
       d="m 47.232422,2.4082412 0.341797,0.4980469 c -1.569024,1.1914199 -3.183606,2.8645953 -4.84375,5.0195312 -1.536467,2.018237 -2.77019,4.0006567 -3.701172,5.9472657 -0.722662,0.475264 -1.367193,0.940758 -1.933594,1.396484 -0.87891,-2.877599 -1.901044,-4.550774 -3.066406,-5.019531 0.65755,-0.7486896 1.305336,-1.1230382 1.943359,-1.1230468 0.546871,8.6e-6 1.207678,0.9147208 1.982422,2.7441408 2.486971,-4.1992089 5.579416,-7.3535026 9.277344,-9.4628908 z"
       style="font-variant:normal;font-stretch:normal;fill:#f4f4f4;fill-opacity:1;font-family:OpenSymbol;-inkscape-font-specification:OpenSymbol"
       id="path7250"
       inkscape:connector-curvature="0" />
  </g>
  <g
     transform="matrix(0.95976928,0,0,1.0107821,-30.660274,-1.4342071)"
     style="font-size:20px;font-style:normal;font-weight:normal;line-height:125%;letter-spacing:0px;word-spacing:0px;fill:#777777;fill-opacity:1;stroke:none;font-family:Sans"
     id="flowRoot7175">
    <path
       d="m 47.232422,2.4082412 0.341797,0.4980469 c -1.569024,1.1914199 -3.183606,2.8645953 -4.84375,5.0195312 -1.536467,2.018237 -2.77019,4.0006567 -3.701172,5.9472657 -0.722662,0.475264 -1.367193,0.940758 -1.933594,1.396484 -0.87891,-2.877599 -1.901044,-4.550774 -3.066406,-5.019531 0.65755,-0.7486896 1.305336,-1.1230382 1.943359,-1.1230468 0.546871,8.6e-6 1.207678,0.9147208 1.982422,2.7441408 2.486971,-4.1992089 5.579416,-7.3535026 9.277344,-9.4628908 z"
       style="font-variant:normal;font-stretch:normal;fill:#777777;fill-opacity:1;font-family:OpenSymbol;-inkscape-font-specification:OpenSymbol"
       id="path7253"
       inkscape:connector-curvature="0" />
  </g>
  <rect
     style="fill:#626262;fill-opacity:1;fill-rule:nonzero;stroke:none"
     id="rect3818"
     width="16"
     height="16"
     x="16"
     y="16"
     rx="1.4576272" />
  <g
     transform="matrix(0.95976928,0,0,1.0107821,-14.660274,14.565793)"
     style="font-size:20px;font-style:normal;font-weight:normal;line-height:125%;letter-spacing:0px;word-spacing:0px;fill:#f4f4f4;fill-opacity:1;stroke:none;font-family:Sans"
     id="flowRoot7183">
    <path
       d="m 47.232422,2.4082412 0.341797,0.4980469 c -1.569024,1.1914199 -3.183606,2.8645953 -4.84375,5.0195312 -1.536467,2.018237 -2.77019,4.0006567 -3.701172,5.9472657 -0.722662,0.475264 -1.367193,0.940758 -1.933594,1.396484 -0.87891,-2.877599 -1.901044,-4.550774 -3.066406,-5.019531 0.65755,-0.7486896 1.305336,-1.1230382 1.943359,-1.1230468 0.546871,8.6e-6 1.207678,0.9147208 1.982422,2.7441408 2.486971,-4.1992089 5.579416,-7.3535026 9.277344,-9.4628908 z"
       style="font-variant:normal;font-stretch:normal;fill:#f4f4f4;fill-opacity:1;font-family:OpenSymbol;-inkscape-font-specification:OpenSymbol"
       id="path7244"
       inkscape:connector-curvature="0" />
  </g>
  <rect
     rx="1.4576272"
     y="16"
     x="0"
     height="16"
     width="16"
     id="rect3820"
     style="fill:#626262;fill-opacity:1;fill-rule:nonzero;stroke:none" />
  <g
     transform="matrix(0.95976928,0,0,1.0107821,-30.660274,14.565793)"
     style="font-size:20px;font-style:normal;font-weight:normal;line-height:125%;letter-spacing:0px;word-spacing:0px;fill:#7c7c7c;fill-opacity:1;stroke:none;font-family:Sans"
     id="flowRoot7191">
    <path
       d="m 47.232422,2.4082412 0.341797,0.4980469 c -1.569024,1.1914199 -3.183606,2.8645953 -4.84375,5.0195312 -1.536467,2.018237 -2.77019,4.0006567 -3.701172,5.9472657 -0.722662,0.475264 -1.367193,0.940758 -1.933594,1.396484 -0.87891,-2.877599 -1.901044,-4.550774 -3.066406,-5.019531 0.65755,-0.7486896 1.305336,-1.1230382 1.943359,-1.1230468 0.546871,8.6e-6 1.207678,0.9147208 1.982422,2.7441408 2.486971,-4.1992089 5.579416,-7.3535026 9.277344,-9.4628908 z"
       style="font-variant:normal;font-stretch:normal;fill:#7c7c7c;fill-opacity:1;font-family:OpenSymbol;-inkscape-font-specification:OpenSymbol"
       id="path7247"
       inkscape:connector-curvature="0" />
  </g>
  <rect
     rx="1.4576272"
     y="32"
     x="16"
     height="16"
     width="16"
     id="rect3824"
     style="fill:#929292;fill-opacity:1;fill-rule:nonzero;stroke:none" />
  <g
     transform="matrix(0.95976928,0,0,1.0107821,-14.660274,30.565793)"
     style="font-size:20px;font-style:normal;font-weight:normal;line-height:125%;letter-spacing:0px;word-spacing:0px;fill:#e2e2e2;fill-opacity:1;stroke:none;font-family:Sans"
     id="flowRoot7199">
    <path
       d="m 47.232422,2.4082412 0.341797,0.4980469 c -1.569024,1.1914199 -3.183606,2.8645953 -4.84375,5.0195312 -1.536467,2.018237 -2.77019,4.0006567 -3.701172,5.9472657 -0.722662,0.475264 -1.367193,0.940758 -1.933594,1.396484 -0.87891,-2.877599 -1.901044,-4.550774 -3.066406,-5.019531 0.65755,-0.7486896 1.305336,-1.1230382 1.943359,-1.1230468 0.546871,8.6e-6 1.207678,0.9147208 1.982422,2.7441408 2.486971,-4.1992089 5.579416,-7.3535026 9.277344,-9.4628908 z"
       style="font-variant:normal;font-stretch:normal;fill:#e2e2e2;fill-opacity:1;font-family:OpenSymbol;-inkscape-font-specification:OpenSymbol"
       id="path7241"
       inkscape:connector-curvature="0" />
  </g>
  <rect
     style="fill:#929292;fill-opacity:1;fill-rule:nonzero;stroke:none"
     id="rect3822"
     width="16"
     height="16"
     x="0"
     y="32"
     rx="1.4576272" />
  <g
     transform="matrix(0.95976928,0,0,1.0107821,-30.660274,30.565793)"
     style="font-size:20px;font-style:normal;font-weight:normal;line-height:125%;letter-spacing:0px;word-spacing:0px;fill:#a0a0a0;fill-opacity:1;stroke:none;font-family:Sans"
     id="flowRoot7207">
    <path
       d="m 47.232422,2.4082412 0.341797,0.4980469 c -1.569024,1.1914199 -3.183606,2.8645953 -4.84375,5.0195312 -1.536467,2.018237 -2.77019,4.0006567 -3.701172,5.9472657 -0.722662,0.475264 -1.367193,0.940758 -1.933594,1.396484 -0.87891,-2.877599 -1.901044,-4.550774 -3.066406,-5.019531 0.65755,-0.7486896 1.305336,-1.1230382 1.943359,-1.1230468 0.546871,8.6e-6 1.207678,0.9147208 1.982422,2.7441408 2.486971,-4.1992089 5.579416,-7.3535026 9.277344,-9.4628908 z"
       style="font-variant:normal;font-stretch:normal;fill:#a0a0a0;fill-opacity:1;font-family:OpenSymbol;-inkscape-font-specification:OpenSymbol"
       id="path7238"
       inkscape:connector-curvature="0" />
  </g>
  <rect
     rx="1.4576272"
     y="48"
     x="0"
     height="16"
     width="16"
     id="rect3828"
     style="fill:#707070;fill-opacity:1;fill-rule:nonzero;stroke:none" />
  <g
     transform="matrix(0.95976928,0,0,1.0107821,-30.660274,46.565793)"
     style="font-size:20px;font-style:normal;font-weight:normal;line-height:125%;letter-spacing:0px;word-spacing:0px;fill:#888888;fill-opacity:1;stroke:none;font-family:Sans"
     id="flowRoot7215">
    <path
       d="m 47.232422,2.4082412 0.341797,0.4980469 c -1.569024,1.1914199 -3.183606,2.8645953 -4.84375,5.0195312 -1.536467,2.018237 -2.77019,4.0006567 -3.701172,5.9472657 -0.722662,0.475264 -1.367193,0.940758 -1.933594,1.396484 -0.87891,-2.877599 -1.901044,-4.550774 -3.066406,-5.019531 0.65755,-0.7486896 1.305336,-1.1230382 1.943359,-1.1230468 0.546871,8.6e-6 1.207678,0.9147208 1.982422,2.7441408 2.486971,-4.1992089 5.579416,-7.3535026 9.277344,-9.4628908 z"
       style="font-variant:normal;font-stretch:normal;fill:#888888;fill-opacity:1;font-family:OpenSymbol;-inkscape-font-specification:OpenSymbol"
       id="path7235"
       inkscape:connector-curvature="0" />
  </g>
  <rect
     style="fill:#707070;fill-opacity:1;fill-rule:nonzero;stroke:none"
     id="rect3826"
     width="16"
     height="16"
     x="16"
     y="48"
     rx="1.4576272" />
  <g
     transform="translate(-16.029297,46.730431)"
     style="font-size:20px;font-style:normal;font-weight:normal;line-height:125%;letter-spacing:0px;word-spacing:0px;fill:#f4f4f4;fill-opacity:1;stroke:none;font-family:Sans"
     id="flowRoot7223">
    <path
       d="m 47.232422,2.4082412 0.341797,0.4980469 c -1.569024,1.1914199 -3.183606,2.8645953 -4.84375,5.0195312 -1.536467,2.018237 -2.77019,4.0006567 -3.701172,5.9472657 -0.722662,0.475264 -1.367193,0.940758 -1.933594,1.396484 -0.87891,-2.877599 -1.901044,-4.550774 -3.066406,-5.019531 0.65755,-0.7486896 1.305336,-1.1230382 1.943359,-1.1230468 0.546871,8.6e-6 1.207678,0.9147208 1.982422,2.7441408 2.486971,-4.1992089 5.579416,-7.3535026 9.277344,-9.4628908 z"
       style="font-variant:normal;font-stretch:normal;fill:#f4f4f4;font-family:OpenSymbol;-inkscape-font-specification:OpenSymbol;fill-opacity:1"
       id="path7232"
       inkscape:connector-curvature="0" />
  </g>
</svg>
