<?xml version="1.0" encoding="UTF-8" standalone="no"?>
<!-- Created with Inkscape (http://www.inkscape.org/) -->

<svg
   xmlns:dc="http://purl.org/dc/elements/1.1/"
   xmlns:cc="http://creativecommons.org/ns#"
   xmlns:rdf="http://www.w3.org/1999/02/22-rdf-syntax-ns#"
   xmlns:svg="http://www.w3.org/2000/svg"
   xmlns="http://www.w3.org/2000/svg"
   xmlns:sodipodi="http://sodipodi.sourceforge.net/DTD/sodipodi-0.dtd"
   xmlns:inkscape="http://www.inkscape.org/namespaces/inkscape"
   id="svg2995"
   version="1.1"
   inkscape:version="0.48.5 r10040"
   width="16"
   height="16"
   sodipodi:docname="sburb.png">
  <metadata
     id="metadata3001">
    <rdf:RDF>
      <cc:Work
         rdf:about="">
        <dc:format>image/svg+xml</dc:format>
        <dc:type
           rdf:resource="http://purl.org/dc/dcmitype/StillImage" />
        <dc:title></dc:title>
      </cc:Work>
    </rdf:RDF>
  </metadata>
  <defs
     id="defs2999" />
  <sodipodi:namedview
     pagecolor="#ffffff"
     bordercolor="#666666"
     borderopacity="1"
     objecttolerance="10"
     gridtolerance="10"
     guidetolerance="10"
     inkscape:pageopacity="0"
     inkscape:pageshadow="2"
     inkscape:window-width="1725"
     inkscape:window-height="896"
     id="namedview2997"
     showgrid="true"
     inkscape:zoom="20.85965"
     inkscape:cx="10.222875"
     inkscape:cy="4.1215884"
     inkscape:window-x="15"
     inkscape:window-y="64"
     inkscape:window-maximized="0"
     inkscape:current-layer="svg2995">
    <inkscape:grid
       type="xygrid"
       id="grid3016" />
  </sodipodi:namedview>
  <path
     style="fill:#676767;fill-opacity:1;stroke:none"
     d="m 7.757576,0 0,0.48484798 -2.10101,1.09596072 0,-0.6111114 -2.262627,0 0,1.7878779 L 0,4.525252 l 7.757576,0 0,-0.323232 7.272727,0 L 7.757576,0 z m 0.484848,4.6868693 0,2.5858574 2.585859,0 0,2.5858587 2.585858,0 0,-0.1616161 0,-5.0101 -5.171717,0 z m -6.141414,0.161616 0,5.3333337 5.333334,0 0,-5.3333337 -5.333334,0 z m 5.818182,2.7474747 0,2.585859 2.585858,0 0,-2.585859 -2.585858,0 z m -5.818182,3.070707 0,5.333333 5.333334,0 0,-5.333333 -5.333334,0 z m 5.818182,0 0,5.333333 5.333334,0 0,-5.333333 -5.333334,0 z"
     id="path3018"
     inkscape:connector-curvature="0" />
</svg>
