<?xml version="1.0" encoding="UTF-8" standalone="no"?>
<!-- Created with Inkscape (http://www.inkscape.org/) -->

<svg
   xmlns:dc="http://purl.org/dc/elements/1.1/"
   xmlns:cc="http://creativecommons.org/ns#"
   xmlns:rdf="http://www.w3.org/1999/02/22-rdf-syntax-ns#"
   xmlns:svg="http://www.w3.org/2000/svg"
   xmlns="http://www.w3.org/2000/svg"
   xmlns:sodipodi="http://sodipodi.sourceforge.net/DTD/sodipodi-0.dtd"
   xmlns:inkscape="http://www.inkscape.org/namespaces/inkscape"
   id="svg3802"
   version="1.1"
   inkscape:version="0.48.5 r10040"
   width="16"
   height="16"
   sodipodi:docname="spirograph.png">
  <metadata
     id="metadata3808">
    <rdf:RDF>
      <cc:Work
         rdf:about="">
        <dc:format>image/svg+xml</dc:format>
        <dc:type
           rdf:resource="http://purl.org/dc/dcmitype/StillImage" />
        <dc:title></dc:title>
      </cc:Work>
    </rdf:RDF>
  </metadata>
  <defs
     id="defs3806" />
  <sodipodi:namedview
     pagecolor="#ffffff"
     bordercolor="#666666"
     borderopacity="1"
     objecttolerance="10"
     gridtolerance="10"
     guidetolerance="10"
     inkscape:pageopacity="0"
     inkscape:pageshadow="2"
     inkscape:window-width="1134"
     inkscape:window-height="804"
     id="namedview3804"
     showgrid="false"
     inkscape:zoom="7.375"
     inkscape:cx="7.5454369"
     inkscape:cy="8"
     inkscape:window-x="281"
     inkscape:window-y="120"
     inkscape:window-maximized="0"
     inkscape:current-layer="svg3802" />
  <path
     inkscape:connector-curvature="0"
     id="path6768"
     d="M 6.8275215,15.753609 C 5.4950037,15.550273 4.6014833,15.213696 3.5470176,14.517936 1.9084957,13.436816 0.59618329,11.444027 0.24691625,9.5066278 0.11872162,8.7954534 0.1351148,7.1025186 0.27773542,6.3280146 0.56986181,4.7415512 1.5246391,3.095788 2.7746069,2.0241815 3.6175619,1.3015093 4.3634722,0.87574915 5.376645,0.53894932 6.3203405,0.2252425 6.8092804,0.15208942 7.9050658,0.16065168 10.329268,0.17969308 12.208307,0.97353316 13.80215,2.6522965 c 0.8648,0.9108705 1.418683,1.872883 1.73252,3.0091276 0.238894,0.8648739 0.306335,1.3975067 0.305318,2.4108841 -0.0018,1.9682308 -0.518643,3.4143728 -1.741539,4.8745668 -1.070233,1.277896 -2.160361,2.002621 -3.769679,2.50609 -1.2249786,0.383234 -2.3353093,0.478573 -3.5012396,0.300644 z M 9.3048582,15.3117 9.6718686,15.184589 8.7237529,15.212842 c -0.5214609,0.01546 -1.0995112,0.04857 -1.2845454,0.07325 l -0.3364267,0.04488 0.3670134,0.07563 c 0.5149186,0.106114 1.3843202,0.06108 1.835064,-0.09502 z m -3.1196094,-0.0069 c -0.067272,-0.02885 -0.1636337,-0.05246 -0.2140949,-0.05246 -0.057823,0 -0.046526,0.01934 0.030581,0.05246 0.067301,0.02885 0.1636338,0.05246 0.2140949,0.05246 0.057823,0 0.046527,-0.01933 -0.030581,-0.05246 z M 7.1796499,14.912834 C 6.9527982,14.832936 6.6500013,14.700055 6.5067935,14.617525 6.3163346,14.507782 6.1149966,14.457194 5.757065,14.429148 5.4879189,14.408033 5.1989042,14.373622 5.1147953,14.352596 l -0.1529334,-0.03822 0.1365402,0.101208 c 0.075081,0.05567 0.3641193,0.223143 0.6422697,0.37215 l 0.5057325,0.270936 0.6728564,0 0.6728594,0 -0.4124821,-0.145283 z m 1.6104626,-0.101891 c 0.5306501,-0.172614 1.127311,-0.491412 1.0233603,-0.546757 -0.044231,-0.0235 -0.218059,-0.06216 -0.3862768,-0.08577 -0.1682238,-0.0235 -0.5019471,-0.109892 -0.7416332,-0.191738 L 8.2497755,13.83793 7.8723719,14.016016 c -0.2075675,0.09793 -0.5579075,0.226861 -0.7785299,0.286432 l -0.401126,0.108344 0.2356146,0.123156 c 0.2501599,0.130769 1.1279637,0.392517 1.341844,0.400142 0.070133,0.0025 0.3041113,-0.05291 0.5199349,-0.123097 z m 1.6365925,0.0083 c 0.199729,-0.05716 0.993633,-0.563815 1.118263,-0.713654 0.06027,-0.07248 0.04817,-0.07754 -0.07481,-0.03122 -0.08071,0.0304 -0.353175,0.08919 -0.605502,0.130649 -0.307673,0.05056 -0.52581,0.125684 -0.662344,0.228082 -0.111979,0.08399 -0.359704,0.234144 -0.5505206,0.333712 l -0.3469392,0.181032 0.465298,-0.03694 c 0.2559128,-0.02023 0.5513588,-0.06156 0.6565498,-0.09166 z M 4.8045321,14.549478 C 4.5882912,14.40259 4.3287753,14.21401 4.2278499,14.130395 4.1269276,14.046765 3.8929494,13.902523 3.7079151,13.809798 3.5228809,13.717066 3.2984195,13.589806 3.2091214,13.526994 c -0.4770324,-0.335649 -0.019671,0.19376 0.5415143,0.626902 0.3051127,0.235486 1.1779481,0.66036 1.3597364,0.661916 0.048046,6.56e-4 -0.089596,-0.119439 -0.30584,-0.266328 z m 7.6838569,-0.586832 c 0.297462,-0.221507 1.110349,-1.101394 0.846052,-0.915786 -0.62337,0.437778 -0.907914,0.662546 -1.276987,1.00872 l -0.428184,0.401616 0.275257,-0.132375 c 0.151383,-0.0728 0.414136,-0.235783 0.583859,-0.362178 z M 5.5621114,13.884964 C 5.3946625,13.708305 5.1527947,13.406168 5.0246358,13.213576 c -0.128135,-0.1926 -0.2378202,-0.350162 -0.243692,-0.350162 -0.1262871,0 -0.8331817,-0.159618 -1.1228133,-0.253538 -0.2124257,-0.06888 -0.3979071,-0.11358 -0.412199,-0.0993 -0.046616,0.04651 0.311533,0.558408 0.6438405,0.920212 0.1787154,0.194563 0.4242226,0.395963 0.5455918,0.447536 0.30705,0.130472 1.0412885,0.320443 1.2541196,0.324481 l 0.1770761,0.0032 -0.3044541,-0.321222 z m 1.2165197,0.253628 C 6.9569293,14.10142 7.3043334,13.988164 7.5506692,13.886927 L 7.9985606,13.702862 7.6939128,13.529237 C 7.5263447,13.43374 7.2284687,13.209175 7.0319295,13.030172 L 6.6746,12.704727 6.36876,12.778217 c -0.1682239,0.04042 -0.5054076,0.07611 -0.7493232,0.07935 -0.2439006,0.0032 -0.4434681,0.02914 -0.4434681,0.05773 0,0.191202 1.0436044,1.290895 1.2250501,1.290895 0.029508,0 0.199341,-0.03043 0.3776123,-0.0676 z m 3.9022519,-0.551804 c 0.187598,-0.223174 0.413758,-0.539042 0.5026,-0.701907 l 0.161518,-0.296127 -0.802542,0 -0.8025408,0 -0.2787138,0.299155 c -0.1532911,0.164524 -0.410187,0.403495 -0.5709028,0.531024 -0.2713815,0.215351 -0.2835423,0.236496 -0.1708169,0.296692 0.2238712,0.119557 1.0718872,0.301521 1.3475093,0.289167 0.256121,-0.01159 0.293677,-0.03705 0.613877,-0.418016 z m 0.651393,0.246252 c 0.67487,-0.207649 0.973019,-0.387912 1.27713,-0.772199 0.259161,-0.327492 0.666938,-1.046208 0.620086,-1.092943 -0.01162,-0.01159 -0.224945,0.07194 -0.474192,0.185492 -0.249236,0.11358 -0.593115,0.239026 -0.764155,0.278819 -0.274242,0.06376 -0.323115,0.09975 -0.41365,0.304516 -0.09156,0.207084 -0.406975,0.70592 -0.687941,1.087999 -0.124558,0.169403 -0.08334,0.170176 0.442722,0.0083 z M 9.0538102,12.910225 9.4858866,12.499258 9.1506968,12.334079 C 8.9663481,12.243368 8.6588747,12.010428 8.4674352,11.81656 L 8.1193604,11.464076 7.9972461,11.660274 C 7.8570993,11.88541 7.5038712,12.229907 7.1997122,12.438085 l -0.2089385,0.142993 0.3126804,0.286877 c 0.1719793,0.157774 0.4577482,0.370455 0.6350388,0.47259 0.3142513,0.181031 0.3268889,0.183112 0.5027936,0.08321 0.099253,-0.05636 0.3748851,-0.287412 0.6125326,-0.513444 z M 3.2330793,13.065293 C 3.1664336,12.971045 3.0360929,12.742873 2.943397,12.558243 2.850701,12.373614 2.7364257,12.200223 2.6894219,12.17293 2.6424183,12.145569 2.4394708,11.986724 2.2384158,11.819755 2.0373461,11.652791 1.8728569,11.527524 1.8728569,11.541353 c 0,0.08866 0.3433417,0.777612 0.4716883,0.946491 0.1530825,0.201403 0.9403752,0.817999 0.9861539,0.772321 0.012817,-0.01279 -0.030968,-0.100612 -0.097614,-0.194861 z M 2.1800115,12.80423 C 2.1088654,12.70454 2.0175402,12.603154 1.977064,12.578885 c -0.070759,-0.04238 -9.062e-4,0.06608 0.1931115,0.299789 0.1435446,0.172911 0.150251,0.122263 0.00984,-0.07444 z M 13.657807,12.359888 c 0.37732,-0.389893 0.451274,-0.506381 0.622025,-0.979749 0.106586,-0.295503 0.193797,-0.55212 0.193797,-0.570303 0,-0.106769 -0.863908,0.900881 -0.923376,1.077028 -0.03967,0.117505 -0.151324,0.371555 -0.248104,0.564574 -0.09677,0.193017 -0.152724,0.350951 -0.12426,0.350951 0.02831,0 0.244407,-0.199113 0.479948,-0.442501 z M 4.5513499,12.329671 C 4.3906372,11.967113 4.2603859,11.485569 4.2582697,11.245984 4.2568301,11.078158 4.2248276,11.050678 3.8752387,10.916822 3.6654657,10.836492 3.3334383,10.662361 3.1373998,10.529885 2.9413672,10.397391 2.7639126,10.306028 2.7430754,10.326816 c -0.054723,0.05461 0.08292,1.180279 0.17955,1.468486 0.069954,0.20863 0.133351,0.269033 0.4359094,0.415336 0.2844662,0.13755 1.0794221,0.389489 1.2787809,0.405281 0.023248,0.0018 -0.015201,-0.126962 -0.08596,-0.286254 z m 1.6985684,0.22133 c 0.149476,-0.03756 0.2717691,-0.07542 0.2717691,-0.08416 0,-0.0086 -0.073292,-0.175648 -0.1628587,-0.370886 C 6.2486964,11.855883 6.186909,11.60045 6.1680419,11.306965 l -0.028017,-0.434008 -0.3138518,0.108227 c -0.2048551,0.07067 -0.5001528,0.108939 -0.8502425,0.110248 l -0.5363907,0.002 0.037883,0.167856 c 0.1110566,0.492048 0.1721584,0.687872 0.3142694,1.007074 l 0.1562419,0.350948 0.5150736,0 c 0.2833037,0 0.6373785,-0.03072 0.7868455,-0.06829 z m 5.2322487,-0.302709 c 0.08495,-0.130263 0.286701,-0.842062 0.328609,-1.1594 l 0.03684,-0.279175 -0.62911,0.0045 c -0.346009,0.0025 -0.714742,-0.01457 -0.819393,-0.03803 l -0.19028,-0.04256 -0.03288,0.469797 c -0.01818,0.258387 -0.08757,0.612581 -0.154394,0.787111 -0.1497741,0.391161 -0.1647962,0.38385 0.741213,0.361131 0.491351,-0.01219 0.677393,-0.03905 0.719359,-0.103408 z M 7.1643506,12.130728 c 0.2573133,-0.176629 0.5652218,-0.517861 0.784628,-0.869471 0.057614,-0.09232 0.1385075,-0.167826 0.1797885,-0.167826 0.041281,5.6e-5 0.230041,0.172971 0.4194716,0.384346 0.2138861,0.238638 0.4835003,0.458275 0.7113505,0.579453 l 0.3669299,0.195128 0.1409516,-0.320085 c 0.1058105,-0.240275 0.1476279,-0.469935 0.1676574,-0.921025 l 0.026825,-0.600947 0.1608624,0.02707 c 0.08849,0.01487 0.329962,0.06364 0.536635,0.108255 0.459601,0.09922 1.080327,0.02676 1.109826,-0.129579 0.03317,-0.175826 -0.234005,-0.7773829 -0.513556,-1.1562987 -0.333317,-0.4517979 -0.318346,-0.5612938 0.0955,-0.6984575 0.344388,-0.1141442 0.948324,-0.526765 1.0509,-0.7180087 C 12.463882,7.728184 12.446977,7.6903242 12.265046,7.5364822 11.987256,7.3015574 11.665995,7.1405955 11.277623,7.0418151 10.878816,6.94037 10.842327,6.8128721 11.107552,6.4475419 11.313837,6.1634005 11.55904,5.4474615 11.527097,5.2225722 11.508615,5.092487 11.473384,5.0798769 11.080553,5.0629842 c -0.334764,-0.014276 -0.521014,0.015168 -0.865992,0.137342 -0.241725,0.085623 -0.4655849,0.1556919 -0.4974621,0.1556919 -0.031892,0 -0.07365,-0.1864733 -0.092785,-0.4144141 C 9.5893185,4.5252895 9.4283971,4.0111701 9.2462451,3.7337648 9.1515522,3.5895826 9.1422826,3.5878874 8.9597222,3.6821055 8.6862244,3.8232245 8.263975,4.2285827 8.0679484,4.538191 7.8691737,4.8521385 7.6884881,4.8905841 7.5577093,4.646744 7.4379497,4.4234816 7.0219833,4.0707554 6.6737744,3.897231 6.3896956,3.7556658 6.3778031,3.7546547 6.29694,3.8649922 6.1478515,4.0684773 6.0650808,4.4602409 6.0601629,4.985974 6.0568799,5.3239995 6.0306551,5.5092238 5.9830849,5.5250011 5.9433244,5.538087 5.7110774,5.5035881 5.466989,5.4483004 5.0273717,5.3485207 4.4464721,5.3621721 4.2608327,5.4765538 c -0.164349,0.1013559 0.199043,0.9319151 0.5921305,1.3533955 0.083009,0.088984 0.141488,0.2096414 0.129983,0.2681113 C 4.9602935,7.2132161 4.965659,7.2097365 4.3809023,7.4829215 4.153067,7.589363 3.8657781,7.78919 3.708043,7.9509609 L 3.4327866,8.2332584 3.6163007,8.3852625 c 0.3189159,0.2641559 0.7839753,0.5058961 1.1163276,0.5802802 0.3942232,0.08824 0.4075523,0.1687779 0.1081354,0.6535968 -0.2684308,0.4346375 -0.461754,1.1526495 -0.3323523,1.2343795 0.1643788,0.103824 0.7335141,0.05803 1.1934262,-0.09603 0.2505474,-0.08393 0.4901529,-0.152599 0.5324563,-0.152599 0.050193,0 0.1016377,0.180882 0.1480751,0.520849 0.072101,0.527611 0.3201381,1.188131 0.4461659,1.188131 0.037853,0 0.1890282,-0.08253 0.3359409,-0.183381 z M 12.669135,11.88632 c 0.792979,-0.391395 0.777593,-0.37085 0.812007,-1.083976 0.01609,-0.337065 0.01073,-0.712804 -0.01222,-0.8349783 l -0.04179,-0.2221322 -0.295525,0.2651375 c -0.162531,0.145818 -0.463848,0.354641 -0.669577,0.464051 -0.353834,0.188168 -0.374101,0.211098 -0.3751,0.424229 -9.8e-4,0.204347 -0.112219,0.793097 -0.220145,1.165081 -0.03946,0.136003 -0.02993,0.143438 0.135259,0.105221 0.09774,-0.0226 0.397912,-0.149773 0.667061,-0.282624 z M 2.6018914,11.535928 C 2.5726817,11.410036 2.5479728,11.031097 2.547168,10.693824 L 2.5457274,10.080603 2.2952993,9.8393476 C 2.0402552,9.5936309 1.5472201,8.9400936 1.4916681,8.7741055 1.4316686,8.5948591 1.3691663,9.3995766 1.4095833,9.8307823 c 0.054574,0.5820797 0.2484908,0.9673867 0.755639,1.5012447 0.2261364,0.238043 0.4288723,0.432794 0.4505472,0.432794 0.021758,0 0.015499,-0.102992 -0.014009,-0.228884 z M 1.4635998,11.230751 C 1.3805312,10.970581 1.2052434,10.524273 1.0740801,10.238936 0.94293473,9.9536049 0.79494905,9.6102738 0.74525687,9.4759981 l -0.0903711,-0.2441405 0.0332931,0.2746543 c 0.0591049,0.4877273 0.19817858,0.9646271 0.39430947,1.3523391 0.1768675,0.34961 0.4796286,0.844922 0.5164596,0.844922 0.00864,0 -0.052279,-0.212854 -0.1353481,-0.473025 z M 14.966372,10.650924 c 0.100029,-0.193017 0.221011,-0.522614 0.268819,-0.7324219 0.0822,-0.3605837 0.189833,-1.5568388 0.116719,-1.2969925 -0.01878,0.067155 -0.115616,0.369259 -0.214959,0.6713817 -0.09934,0.3021255 -0.231502,0.7870397 -0.293677,1.0775907 -0.06214,0.290536 -0.131324,0.592672 -0.153619,0.671387 -0.05666,0.199887 0.04477,0.05657 0.276717,-0.390945 z M 14.498317,10.11192 14.735095,9.6745075 14.699354,9.0564537 c -0.01967,-0.3399289 -0.05925,-0.6982136 -0.08787,-0.7961879 l -0.05216,-0.1781461 -0.169535,0.3457639 c -0.09327,0.1901612 -0.289653,0.505221 -0.436488,0.700111 l -0.26694,0.3543471 0.03651,0.8183003 0.03651,0.818297 0.251174,-0.284796 c 0.13815,-0.156644 0.357717,-0.481648 0.487947,-0.722226 z M 4.2584366,10.519545 c 0,-0.230936 0.1939165,-0.8285494 0.3332971,-1.0270974 C 4.7328045,9.2914608 4.7085426,9.2157709 4.4878308,9.1681504 4.2055106,9.1072416 3.7487937,8.8672025 3.4991853,8.648523 L 3.2859249,8.4616927 3.1567169,8.7143983 C 3.0055718,9.0100197 2.7762582,9.8616024 2.8261321,9.9421072 c 0.134752,0.2175518 1.2668289,0.8799588 1.3822428,0.8087858 0.027421,-0.01695 0.050074,-0.121074 0.050074,-0.231322 z m 8.0314374,-0.258446 c 0.220235,-0.11239 0.586154,-0.3862709 0.885565,-0.66279 L 13.375883,9.413174 13.259968,9.0770044 C 13.152906,8.7664771 12.908942,8.2551652 12.767448,8.0447328 12.719046,7.97279 12.649447,8.0108287 12.395243,8.2480989 12.223264,8.4086385 11.919084,8.6139971 11.719317,8.7044799 l -0.363214,0.1645249 0.212248,0.2978994 c 0.220682,0.3097302 0.458487,0.8669258 0.458487,1.0743248 0,0.145253 0.0152,0.146383 0.263006,0.01992 z M 2.945701,8.5252513 C 3.0858179,8.2493183 3.0939848,8.2010731 3.0155064,8.112006 2.8960446,7.9764187 2.6415092,7.4577608 2.5466672,7.1566763 2.5043728,7.0223975 2.4490234,6.8899032 2.4236886,6.8622445 2.3616627,6.7945549 1.8526695,7.5672032 1.6929851,7.9714431 L 1.5649693,8.2954667 1.7519707,8.6455282 C 1.8548304,8.8380687 2.0801919,9.1697503 2.2528031,9.3826126 L 2.566649,9.7696357 2.6768409,9.3036455 C 2.7374363,9.0473411 2.8584474,8.6970775 2.945689,8.5252513 z M 1.2013598,8.7733769 C 1.2550099,8.3781811 1.2465456,8.2483159 1.140049,7.8328282 1.0720918,7.5677207 1.0137619,7.2659134 1.0104534,7.1621841 1.00479,6.9821348 1.0006176,6.9852871 0.92285428,7.2321041 0.87799654,7.3742939 0.80738671,7.6919857 0.76592688,7.938086 0.69191914,8.377625 0.69427379,8.3968135 0.89942694,9.0223292 1.0766819,9.5628078 1.1106008,9.6268065 1.1237154,9.445493 1.1320611,9.327988 1.1671722,9.0255442 1.2013892,8.7733679 z M 13.882909,8.7283204 C 14.269728,8.1227934 14.426638,7.7206473 14.352248,7.5254301 14.260716,7.2852749 13.895451,6.7362759 13.637858,6.4517835 L 13.407816,6.1977096 13.301768,6.6281867 c -0.0583,0.2367647 -0.176599,0.5792779 -0.262798,0.7611356 l -0.156779,0.3306558 0.216868,0.3592126 c 0.119253,0.1975667 0.27457,0.517144 0.345148,0.7101663 0.07058,0.1930164 0.138925,0.3509538 0.151919,0.3509538 0.01282,0 0.142055,-0.1854029 0.286791,-0.4119873 z M 15.213611,7.7060892 C 15.219295,7.5147384 15.157996,7.207426 15.049978,6.8821176 L 14.87776,6.3633201 14.82483,6.7905643 c -0.0876,0.7073647 -0.07884,1.0113491 0.04525,1.5869096 l 0.118477,0.5493144 0.108255,-0.4577611 c 0.05956,-0.2517837 0.11207,-0.595094 0.116809,-0.762938 z M 4.2370451,7.2361044 4.6132536,7.0594156 4.4099781,6.7580127 C 4.2085209,6.4593072 3.9525907,5.8615008 3.9525907,5.6896539 c 0,-0.112687 -0.023249,-0.1117354 -0.2630061,0.010707 C 3.4631501,5.8159322 3.0889893,6.0927308 2.8109998,6.3503318 L 2.6175305,6.529608 2.7098387,6.8432194 c 0.050759,0.1724954 0.1892368,0.4986573 0.307682,0.7248225 L 3.2328972,7.9792529 3.5468713,7.6960631 C 3.7195364,7.5403117 4.0301304,7.3333529 4.2370451,7.2361726 z M 15.582011,7.4879773 c -0.05195,-0.4475867 -0.05272,-0.4490589 -0.05973,-0.1175645 -0.0039,0.1846295 0.0098,0.3985802 0.03043,0.4754418 0.06935,0.2582672 0.08241,0.098917 0.0292,-0.3578743 z M 1.6055916,7.511175 C 1.702103,7.3200918 1.9072409,7.0014482 2.0614173,6.8030905 L 2.3417406,6.4424385 2.2863314,6.0976708 C 2.25587,5.9080449 2.2398049,5.5282548 2.2506839,5.2536839 2.2697596,4.7697035 2.2670773,4.7575932 2.1561403,4.8569564 1.9950997,5.0013767 1.5453752,5.6430801 1.3909456,5.948834 1.2914837,6.1457762 1.2611414,6.3180366 1.2611414,6.686335 c 0,0.4002575 0.1014589,1.1722753 0.1540661,1.1722753 0.00805,0 0.093828,-0.1563462 0.1903695,-0.3474353 z M 12.958787,6.8515319 c 0.08384,-0.2349803 0.170698,-0.5273806 0.192962,-0.649772 0.0386,-0.2122288 0.02713,-0.2323037 -0.25165,-0.4335552 -0.345532,-0.2496126 -0.790854,-0.5060686 -0.97202,-0.5597771 -0.117374,-0.034796 -0.136183,-0.00286 -0.202977,0.3446129 -0.04047,0.2106228 -0.166138,0.5667633 -0.27922,0.7913997 l -0.205631,0.4084333 0.38867,0.1290741 c 0.213768,0.07099 0.534987,0.2340882 0.71381,0.3624663 0.381181,0.2736431 0.377306,0.2761115 0.616065,-0.3928671 z M 0.95503288,6.2411928 C 1.0412908,6.0367562 1.2633498,5.0328482 1.2297527,4.9993097 1.1912138,4.9608552 0.88011607,5.6203375 0.73242846,6.0535179 0.63159553,6.3492879 0.58956939,6.605848 0.59249035,6.9080093 l 0.004173,0.4318124 0.14059384,-0.457761 C 0.81457325,6.6302769 0.91260439,6.3419005 0.95507762,6.2411928 z M 14.549276,6.0125176 C 14.487223,5.5218665 14.456696,5.4398925 14.20772,5.094542 14.05735,4.8859713 13.804391,4.591733 13.645599,4.4406716 L 13.3569,4.1660173 13.39463,4.4101578 c 0.02086,0.1342787 0.03803,0.5094056 0.03842,0.8336194 l 7.81e-4,0.5894791 0.333491,0.3565657 c 0.183424,0.1961094 0.424266,0.5001443 0.535219,0.6756375 l 0.201754,0.3190777 0.05658,-0.3166271 C 14.59795,6.660648 14.593922,6.3651784 14.549244,6.0125206 z M 15.178307,5.993484 C 15.056371,5.3577019 14.985373,5.1552487 14.742134,4.7500483 c -0.407287,-0.6784687 -0.448827,-0.6717563 -0.2039,0.032953 0.233081,0.6706203 0.680805,1.7418045 0.714125,1.7085575 0.0098,-0.00981 -0.02355,-0.2340286 -0.07404,-0.4980654 z M 3.5279479,5.4812498 3.8754653,5.2964419 3.9175808,4.9143111 C 3.9408293,4.7041345 4.0009474,4.3712155 4.0513193,4.1744786 4.1017207,3.9777447 4.1329572,3.8068226 4.1207964,3.7946616 4.0213048,3.6953876 2.7066942,4.3155679 2.6017005,4.5113114 2.5165159,4.6701261 2.4581559,5.5781594 2.5106732,5.9275934 L 2.5535933,6.2132219 2.867007,5.939668 C 3.0393738,5.7892105 3.3368085,5.5829269 3.527947,5.4812765 z M 13.224538,5.1273696 C 13.200988,4.8671991 13.139621,4.4855442 13.087908,4.2792279 L 12.993867,3.904113 12.586816,3.7172231 c -0.360823,-0.165655 -1.16746,-0.3996716 -1.214809,-0.3524228 -0.0098,0.00981 0.04939,0.1827856 0.131503,0.3844475 0.08211,0.2016709 0.180236,0.5438065 0.218029,0.7603119 l 0.0687,0.3936463 0.286524,0.1017127 c 0.157583,0.055942 0.465444,0.2115151 0.684119,0.3457194 0.218685,0.1342191 0.422044,0.2453002 0.451912,0.2468765 0.03064,0.00161 0.03583,-0.2029794 0.01162,-0.470151 z M 5.803255,4.7611561 C 5.821437,4.5009855 5.8909738,4.1455143 5.9577085,3.9711958 L 6.0790777,3.6542564 5.7411249,3.6121135 C 5.4260033,3.5728263 4.5807623,3.6105063 4.5248317,3.6662712 4.4385437,3.7523701 4.2389645,4.4720861 4.2121423,4.7938049 L 4.180161,5.1774137 4.6627672,5.1412497 c 0.2654204,-0.019926 0.6064699,-0.010112 0.7578654,0.02171 0.1513836,0.031822 0.2919774,0.060879 0.3123944,0.064538 0.020566,0.00357 0.052011,-0.2061616 0.070223,-0.4663322 z M 2.202792,4.4192823 C 2.3344143,4.3191159 2.4290476,4.1844209 2.4552767,4.0599684 2.4782273,3.9504637 2.5874951,3.6892818 2.6978659,3.4795365 L 2.8985184,3.0981849 2.5539188,3.397509 C 1.9865629,3.8903223 1.8927164,4.0198514 1.6950565,4.5829178 1.5910045,4.8793124 1.5058793,5.1369699 1.5058793,5.1554656 c 0,0.01844 0.1094468,-0.1035271 0.2432151,-0.2711449 C 1.8828627,4.7166731 2.0870442,4.5074273 2.2028425,4.4192971 z m 8.768579,0.4261793 0.565469,-0.00803 -0.03812,-0.2136264 C 11.443691,4.3153516 11.3003,3.9040691 11.131683,3.5709598 l -0.146764,-0.2899112 -0.38822,0 c -0.422819,0 -1.012973,0.09404 -1.0933234,0.1742203 -0.027719,0.027659 0.019374,0.188942 0.1046183,0.3583798 0.085275,0.1694321 0.18721,0.5143633 0.2264941,0.7665129 l 0.071414,0.4584599 0.2499805,-0.092583 c 0.148195,-0.054871 0.480216,-0.095824 0.815445,-0.1005826 z M 8.428944,3.7095085 C 8.5406262,3.6182048 8.7101913,3.5029899 8.8057754,3.4534421 L 8.9795431,3.363387 8.6751695,3.0903386 C 8.5077504,2.940149 8.2093589,2.7314952 8.0120447,2.6266418 L 7.6532934,2.4360052 7.4697793,2.5632355 C 7.2453717,2.7188083 6.5216606,3.413551 6.5216606,3.4734099 c 0,0.023792 0.1304598,0.1069769 0.2899207,0.1848675 0.1594609,0.07789 0.4415994,0.292677 0.6269764,0.4773035 L 7.7756164,4.4712747 8.0007393,4.173399 C 8.1245525,4.0095582 8.3172409,3.8008329 8.4289232,3.7095412 z m 5.435464,0.1723764 C 13.602267,3.3502125 13.453729,3.1869427 12.864943,2.7832443 l -0.354721,-0.2432185 0.214929,0.298509 c 0.11821,0.1641681 0.264079,0.4136291 0.324135,0.5543317 0.07386,0.1731199 0.257552,0.3809173 0.567973,0.6427296 0.252335,0.2127938 0.467652,0.3798525 0.478516,0.3712277 0.01073,-0.00862 -0.09326,-0.2448541 -0.231352,-0.5249479 z M 1.7233244,3.7502233 C 1.8108345,3.569698 1.8104768,3.5644934 1.7185518,3.6778053 1.5679135,3.8631782 1.4794202,4.0370833 1.5614755,3.9864767 1.5987027,3.9635761 1.6716078,3.8571945 1.7234698,3.7502177 z m 1.4312792,0.086218 C 3.3609789,3.73907 3.7008243,3.613208 3.9098373,3.5567307 4.2843886,3.4555532 4.2922603,3.4489805 4.4568686,3.0993949 4.5487299,2.9042967 4.7289357,2.6113225 4.8573777,2.4483083 5.2103914,2.0002101 5.2096462,2.0047574 4.9199703,2.069702 4.6762783,2.124336 3.8718503,2.4393149 3.7340671,2.5340564 3.5779445,2.6413902 3.0794877,3.3176432 2.9109956,3.6506871 2.8100435,3.8502166 2.7391356,4.0134864 2.7534125,4.0134864 c 0.014307,0 0.1948106,-0.079675 0.4011798,-0.1770456 z M 6.4621921,3.1038744 C 6.5760204,2.9560637 6.8290952,2.7176307 7.0245913,2.5740313 7.2200874,2.4304437 7.3571045,2.298812 7.3290842,2.2815326 7.1612776,2.1780354 6.3126417,1.9993541 5.9890225,1.9993541 l -0.3821815,0 -0.3282392,0.3970664 C 5.0980683,2.6148055 4.8771927,2.9276257 4.7877664,3.0915766 L 4.6251759,3.3896664 5.1299486,3.3623048 c 0.2776407,-0.015167 0.6286544,-0.00278 0.7800439,0.027362 0.1513835,0.030038 0.2909938,0.038514 0.3102513,0.018737 0.019374,-0.019629 0.128135,-0.1567329 0.2419632,-0.3045377 z m 6.2987049,0.3248771 c 0,-0.090828 -0.464347,-0.7181545 -0.754962,-1.01995 C 11.723824,2.1158272 11.620194,2.0534879 11.197054,1.9221475 10.930143,1.8392905 10.564638,1.7550947 10.384853,1.7350198 l -0.326889,-0.036462 0.34741,0.3487558 c 0.191085,0.1918268 0.442341,0.5018871 0.558375,0.6890505 l 0.210966,0.3402945 0.471959,0.077563 c 0.259579,0.042678 0.59582,0.127022 0.747213,0.1874252 0.311214,0.1242264 0.367017,0.1374609 0.367017,0.08708 z M 9.733042,3.1294185 c 0.269146,-0.048507 0.620094,-0.089192 0.7799,-0.090352 0.159789,-0.00115 0.290548,-0.019033 0.290548,-0.039733 0,-0.092403 -0.46312,-0.6533914 -0.771678,-0.9347848 C 9.7670474,1.8230846 9.6480985,1.7551988 9.4898716,1.7551988 c -0.2393701,0 -0.9431024,0.2080056 -1.2767095,0.3773544 L 7.9778157,2.2520211 8.4272332,2.5474343 c 0.2471793,0.1624728 0.5302685,0.3802806 0.6290776,0.4840099 0.098806,0.1037351 0.1813979,0.1880496 0.1835141,0.1873953 0.0021,-6.542e-4 0.2240501,-0.040893 0.4932022,-0.08943 z M 2.9638765,2.7317634 C 3.1770475,2.580711 3.5348866,2.2919151 3.7590708,2.0900182 3.9832698,1.8881095 4.2630208,1.6471394 4.3807715,1.5545094 L 4.5948663,1.3860886 4.3501908,1.4966937 C 3.6310847,1.8217791 3.1329766,2.2084274 2.64891,2.8172824 2.4238466,3.100383 2.456007,3.0916689 2.9638796,2.7317483 z M 12.787627,2.2988328 C 12.45844,1.9529052 11.672415,1.4024548 11.31949,1.2706981 11.12778,1.199112 10.960212,1.1512301 10.947129,1.1642863 c -0.01311,0.013086 0.09377,0.099839 0.237433,0.1928974 0.143664,0.093028 0.330028,0.231798 0.41413,0.3083205 0.128941,0.1173563 1.260293,0.8074328 1.341865,0.8184963 0.0146,0.00202 -0.05407,-0.08134 -0.152933,-0.1851648 z M 8.0814802,1.9161132 C 8.283325,1.8219842 8.641176,1.6949325 8.8766744,1.6337561 L 9.3048582,1.5225264 9.0296019,1.4039804 C 8.3265999,1.1012451 7.7782094,0.99778365 7.3877508,1.0942235 7.074203,1.171668 6.314132,1.5062078 6.1286506,1.6484094 6.0199191,1.7317427 6.0410807,1.7420327 6.4039069,1.7822419 6.6200584,1.8063313 6.9896173,1.889427 7.2251157,1.9671688 7.460611,2.0449406 7.6670608,2.1037674 7.6838801,2.0978787 7.7005715,2.0919301 7.8796146,2.010203 8.0814772,1.9161043 z M 5.3200855,1.758726 C 5.4161794,1.7567954 5.5951034,1.6763737 5.7176826,1.5800447 5.8402738,1.4837146 6.105733,1.3176733 6.3075896,1.2111039 L 6.6746,1.017344 6.1707364,1.0486314 c -0.2903977,0.018142 -0.5884047,0.074352 -0.7034371,0.1329405 -0.189237,0.096389 -1.1476982,0.7481094 -1.1476982,0.7804046 0,0.00833 0.1858092,-0.033131 0.4128904,-0.092255 0.2270902,-0.059095 0.4915062,-0.1090289 0.587594,-0.110962 z M 10.810172,1.4620936 C 10.729753,1.4051105 10.46824,1.2557237 10.229073,1.1301381 9.8052793,0.90761915 9.777858,0.90184949 9.1519337,0.90443689 L 8.509664,0.90710249 8.8934014,1.0493516 c 0.2110547,0.078218 0.4907849,0.2129427 0.6216322,0.299333 0.1939462,0.128063 0.3264955,0.1609561 0.7173054,0.1779974 0.263662,0.011599 0.534454,0.024982 0.601738,0.029978 0.111055,0.00833 0.10888,-4.491e-4 -0.02384,-0.094516 z M 5.3594709,0.90071936 c 0.050461,-0.032536 0.064231,-0.0591548 0.030581,-0.0591548 -0.033651,0 -0.1024722,0.0267667 -0.1529334,0.0591548 -0.050461,0.032536 -0.064231,0.0591842 -0.030581,0.0591842 0.03365,0 0.1024724,-0.0267667 0.1529335,-0.0591842 z M 8.509664,0.6690404 8.9990122,0.6260674 8.594363,0.5497842 C 8.3718034,0.5078206 8.0311382,0.473501 7.8373232,0.473501 c -0.3402717,0 -1.4379855,0.21963466 -1.4379855,0.28770938 0,0.035722 1.3014244,-0.0211092 2.1103263,-0.0921298 z"
     style="fill:#52d152;fill-opacity:1" />
</svg>
